{"title":"Barry e a Banda das minhocas 720p dublado Pt.Br.En [japa1080]","uid":11571204,"size":1748419484,"categoryP":"video","categoryS":"hd___movies","magnet":"?xt=urn:btih:e01d73737599e95cc52352ac510813010f022e4f&amp;dn=Barry+e+a+Banda+das+minhocas+720p+dublado+Pt.Br.En+%5Bjapa1080%5D&amp;tr=udp%3A%2F%2Ftracker.openbittorrent.com%3A80&amp;tr=udp%3A%2F%2Fopen.demonii.com%3A1337&amp;tr=udp%3A%2F%2Ftracker.coppersurfer.tk%3A6969&amp;tr=udp%3A%2F%2Fexodus.desync.com%3A6969","seeders":4,"leechers":0,"uploader":"japa1080","files":-1,"time":1417026583,"description":" Barry e a Banda das Minhocas (2008)\n&quot;Disco ormene&quot; (original title)\n75 min  -  Animation | Comedy | Family  -  30 January 2009 (Brazil) \n\n\nVideo\nID                                       : 1\nFormat                                   : MPEG-4 Visual\nFormat profile                           : Advanced Simple@L5\nFormat settings, BVOP                    : Yes\nFormat settings, QPel                    : No\nFormat settings, GMC                     : No warppoints\nFormat settings, Matrix                  : Default (H.263)\nCodec ID                                 : V_MPEG4/ISO/ASP\nCodec ID/Info                            : Advanced Simple Profile\nDuration                                 : 1h 12mn\nBit rate                                 : 2 440 Kbps\nWidth                                    : 1 280 pixels\nHeight                                   : 720 pixels\nDisplay aspect ratio                     : 16:9\nFrame rate mode                          : Constant\nFrame rate                               : 25.000 fps\nColor space                              : YUV\nChroma subsampling                       : 4:2:0\nBit depth                                : 8 bits\nScan type                                : Progressive\nCompression mode                         : Lossy\nBits/(Pixel*Frame)                       : 0.106\nStream size                              : 1.24 GiB (76%)\nWriting library                          : XviD 1.2.1 (UTC 2008-12-04)\nDefault                                  : Yes\nForced                                   : No\n\nAudio #1\nID                                       : 2\nFormat                                   : MPEG Audio\nFormat version                           : Version 1\nFormat profile                           : Layer 3\nMode                                     : Joint stereo\nMode extension                           : MS Stereo\nCodec ID                                 : A_MPEG/L3\nCodec ID/Hint                            : MP3\nDuration                                 : 1h 12mn\nBit rate mode                            : Constant\nBit rate                                 : 256 Kbps\nChannel(s)                               : 2 channels\nSampling rate                            : 48.0 KHz\nCompression mode                         : Lossy\nDelay relative to video                  : 1mn 5s\nStream size                              : 133 MiB (8%)\nWriting library                          : LAME3.99.5\nLanguage                                 : Portuguese\nDefault                                  : Yes\nForced                                   : No\n\nAudio #2\nID                                       : 3\nFormat                                   : AC-3\nFormat/Info                              : Audio Coding 3\nMode extension                           : CM (complete main)\nFormat settings, Endianness              : Big\nCodec ID                                 : A_AC3\nDuration                                 : 1h 12mn\nBit rate mode                            : Constant\nBit rate                                 : 448 Kbps\nChannel(s)                               : 6 channels\nChannel positions                        : Front: L C R, Side: L R, LFE\nSampling rate                            : 48.0 KHz\nBit depth                                : 16 bits\nCompression mode                         : Lossy\nDelay relative to video                  : 1mn 5s\nStream size                              : 233 MiB (14%)\nLanguage                                 : English\nDefault                                  : Yes\nForced                                   : No\n\nkeep seeding plz\nmantenha semeando obrigado","torrent":{"xt":"urn:btih:e01d73737599e95cc52352ac510813010f022e4f","amp;dn":"Barry+e+a+Banda+das+minhocas+720p+dublado+Pt.Br.En+%5Bjapa1080%5D","amp;tr":["udp%3A%2F%2Ftracker.openbittorrent.com%3A80","udp%3A%2F%2Fopen.demonii.com%3A1337","udp%3A%2F%2Ftracker.coppersurfer.tk%3A6969","udp%3A%2F%2Fexodus.desync.com%3A6969"],"infoHash":"e01d73737599e95cc52352ac510813010f022e4f","infoHashBuffer":{"type":"Buffer","data":[224,29,115,115,117,153,233,92,197,35,82,172,81,8,19,1,15,2,46,79]},"announce":[],"urlList":[]}}